{
    "asset" : {
        "generator" : "Khronos glTF Blender I/O v1.5.17",
        "version" : "2.0"
    },
    "scene" : 0,
    "scenes" : [
        {
            "name" : "Scene",
            "nodes" : [
                29
            ]
        }
    ],
    "nodes" : [
        {
            "name" : "pinky-finger-tip",
            "rotation" : [
                -0.7025396227836609,
                0.19083409011363983,
                0.025951702147722244,
                0.6850890517234802
            ],
            "scale" : [
                0.9999998211860657,
                0.9999999403953552,
                0.9999998211860657
            ],
            "translation" : [
                -0.05193101242184639,
                -0.1379069834947586,
                0.021761668846011162
            ]
        },
        {
            "name" : "pinky-finger-phalanx-distal",
            "rotation" : [
                -0.7018182873725891,
                0.19386295974254608,
                0.020114073529839516,
                0.6851742267608643
            ],
            "scale" : [
                0.9999997019767761,
                0.9999999403953552,
                1
            ],
            "translation" : [
                -0.04895484447479248,
                -0.12640319764614105,
                0.02097189985215664
            ]
        },
        {
            "name" : "pinky-finger-phalanx-intermediate",
            "rotation" : [
                -0.7184361219406128,
                0.23154398798942566,
                -0.014237942174077034,
                0.6557700634002686
            ],
            "scale" : [
                0.9999998807907104,
                1.0000001192092896,
                1
            ],
            "translation" : [
                -0.042367447167634964,
                -0.10740294307470322,
                0.018117262050509453
            ]
        },
        {
            "name" : "pinky-finger-phalanx-proximal",
            "rotation" : [
                -0.7356151938438416,
                0.17717966437339783,
                -0.00540646119043231,
                0.6537954807281494
            ],
            "scale" : [
                1,
                0.9999998807907104,
                1
            ],
            "translation" : [
                -0.03505406528711319,
                -0.07389583438634872,
                0.013691188767552376
            ]
        },
        {
            "name" : "pinky-finger-metacarpal",
            "rotation" : [
                -0.697102427482605,
                0.25204479694366455,
                0.04219775274395943,
                0.6698813438415527
            ],
            "scale" : [
                0.9999999403953552,
                1,
                1
            ],
            "translation" : [
                -0.022998567670583725,
                -0.03407355397939682,
                0.009419836103916168
            ]
        },
        {
            "name" : "ring-finger-tip",
            "rotation" : [
                -0.7179067730903625,
                0.12701742351055145,
                -0.005398598033934832,
                0.6844322085380554
            ],
            "scale" : [
                0.9999999403953552,
                1,
                0.9999997019767761
            ],
            "translation" : [
                -0.03552267327904701,
                -0.16357210278511047,
                0.014942222274839878
            ]
        },
        {
            "name" : "ring-finger-phalanx-distal",
            "rotation" : [
                -0.7198992967605591,
                0.1409226506948471,
                -0.009468449279665947,
                0.6795558333396912
            ],
            "scale" : [
                1,
                1.0000001192092896,
                1
            ],
            "translation" : [
                -0.03319218009710312,
                -0.1518879234790802,
                0.014168625697493553
            ]
        },
        {
            "name" : "ring-finger-phalanx-intermediate",
            "rotation" : [
                -0.734045684337616,
                0.1547553390264511,
                -0.03151772916316986,
                0.6604804396629333
            ],
            "scale" : [
                0.9999999403953552,
                0.9999998807907104,
                0.9999998211860657
            ],
            "translation" : [
                -0.026761077344417572,
                -0.1263144314289093,
                0.010884808376431465
            ]
        },
        {
            "name" : "ring-finger-phalanx-proximal",
            "rotation" : [
                -0.7350929379463196,
                0.12426811456680298,
                -0.04746411368250847,
                0.664788007736206
            ],
            "scale" : [
                1.0000001192092896,
                0.9999998807907104,
                1
            ],
            "translation" : [
                -0.017465239390730858,
                -0.0846937820315361,
                0.0065293097868561745
            ]
        },
        {
            "name" : "ring-finger-metacarpal",
            "rotation" : [
                -0.7838623523712158,
                0.151200532913208,
                0.02485472708940506,
                0.6017313003540039
            ],
            "scale" : [
                0.9999998807907104,
                0.9999997615814209,
                0.9999998807907104
            ],
            "translation" : [
                -0.008265812881290913,
                -0.026990525424480438,
                0.009419835172593594
            ]
        },
        {
            "name" : "middle-finger-tip",
            "rotation" : [
                -0.6716073155403137,
                0.08411362022161484,
                -0.01254818681627512,
                0.7360102534294128
            ],
            "scale" : [
                0.9999997615814209,
                1,
                1
            ],
            "translation" : [
                -0.007302367594093084,
                -0.17740771174430847,
                0.008763391524553299
            ]
        },
        {
            "name" : "middle-finger-phalanx-distal",
            "rotation" : [
                -0.6702033281326294,
                0.09296411275863647,
                -0.026790117844939232,
                0.7358448505401611
            ],
            "scale" : [
                1.000000238418579,
                0.9999998807907104,
                1.000000238418579
            ],
            "translation" : [
                -0.005685921758413315,
                -0.1653556227684021,
                0.009792778640985489
            ]
        },
        {
            "name" : "middle-finger-phalanx-intermediate",
            "rotation" : [
                -0.7390992045402527,
                0.05043071135878563,
                -0.023780852556228638,
                0.671285092830658
            ],
            "scale" : [
                0.9999997019767761,
                0.9999998807907104,
                1
            ],
            "translation" : [
                -0.002640286460518837,
                -0.1381155103445053,
                0.007021447643637657
            ]
        },
        {
            "name" : "middle-finger-phalanx-proximal",
            "rotation" : [
                -0.7411647439002991,
                0.037427108734846115,
                -0.02567698433995247,
                0.6697871088981628
            ],
            "scale" : [
                1.0000003576278687,
                0.9999999403953552,
                0.9999997019767761
            ],
            "translation" : [
                0.0017259035957977176,
                -0.09164661914110184,
                0.0025431548710912466
            ]
        },
        {
            "name" : "middle-finger-metacarpal",
            "rotation" : [
                -0.7822577953338623,
                0.033309657126665115,
                0.04780178889632225,
                0.6202244758605957
            ],
            "scale" : [
                0.9999997615814209,
                0.9999997615814209,
                1
            ],
            "translation" : [
                0.003259145887568593,
                -0.029106346890330315,
                0.009419834241271019
            ]
        },
        {
            "name" : "index-finger-tip",
            "rotation" : [
                -0.6860069036483765,
                0.04023914784193039,
                -0.03191280737519264,
                0.7257803082466125
            ],
            "scale" : [
                1.0000001192092896,
                1,
                0.9999999403953552
            ],
            "translation" : [
                0.01942507177591324,
                -0.16941747069358826,
                0.012159137055277824
            ]
        },
        {
            "name" : "index-finger-phalanx-distal",
            "rotation" : [
                -0.6893147230148315,
                0.041432883590459824,
                -0.037286754697561264,
                0.7223144769668579
            ],
            "scale" : [
                1,
                0.9999999403953552,
                1
            ],
            "translation" : [
                0.02069161832332611,
                -0.15792004764080048,
                0.01276903785765171
            ]
        },
        {
            "name" : "index-finger-phalanx-intermediate",
            "rotation" : [
                -0.7378429770469666,
                0.017481863498687744,
                -0.023328138515353203,
                0.674342691898346
            ],
            "scale" : [
                0.9999997615814209,
                0.9999998807907104,
                0.9999997615814209
            ],
            "translation" : [
                0.022021938115358353,
                -0.13375447690486908,
                0.010550453327596188
            ]
        },
        {
            "name" : "index-finger-phalanx-proximal",
            "rotation" : [
                -0.7353142499923706,
                -0.008891867473721504,
                -0.034605953842401505,
                0.6767839193344116
            ],
            "scale" : [
                0.9999998807907104,
                1,
                0.9999998807907104
            ],
            "translation" : [
                0.02355068363249302,
                -0.09199623763561249,
                0.007316450122743845
            ]
        },
        {
            "name" : "index-finger-metacarpal",
            "rotation" : [
                -0.7737962007522583,
                -0.07604815065860748,
                0.06092744693160057,
                0.6258945465087891
            ],
            "scale" : [
                1.000000238418579,
                0.9999999403953552,
                0.9999998211860657
            ],
            "translation" : [
                0.015884488821029663,
                -0.029212743043899536,
                0.009419833309948444
            ]
        },
        {
            "name" : "thumb-tip",
            "rotation" : [
                -0.3910849094390869,
                -0.7220976948738098,
                -0.09678922593593597,
                0.5623695254325867
            ],
            "translation" : [
                0.07789859920740128,
                -0.09167806804180145,
                0.04891209676861763
            ]
        },
        {
            "name" : "thumb-phalanx-distal",
            "rotation" : [
                -0.3913572430610657,
                -0.7193922996520996,
                -0.09222294390201569,
                0.5664002299308777
            ],
            "scale" : [
                0.9999998807907104,
                1,
                0.9999999403953552
            ],
            "translation" : [
                0.06691259145736694,
                -0.08312329649925232,
                0.04371181130409241
            ]
        },
        {
            "name" : "thumb-phalanx-proximal",
            "rotation" : [
                -0.47661563754081726,
                -0.6371734738349915,
                -0.11579832434654236,
                0.5945067405700684
            ],
            "scale" : [
                0.9999999403953552,
                0.9999998807907104,
                0.9999998211860657
            ],
            "translation" : [
                0.04495571553707123,
                -0.05921866372227669,
                0.034307628870010376
            ]
        },
        {
            "name" : "thumb-metacarpal",
            "rotation" : [
                -0.47604361176490784,
                -0.7034937143325806,
                -0.18330147862434387,
                0.4948531985282898
            ],
            "scale" : [
                0.9999997615814209,
                0.9999997019767761,
                0.9999999403953552
            ],
            "translation" : [
                0.028028499335050583,
                -0.0359584279358387,
                0.019157709553837776
            ]
        },
        {
            "name" : "wrist",
            "rotation" : [
                -0.70710688829422,
                5.338509012631221e-08,
                5.338510078445324e-08,
                0.7071066498756409
            ],
            "scale" : [
                1,
                0.9999999403953552,
                1
            ]
        },
        {
            "mesh" : 0,
            "name" : "Skeleton.001",
            "skin" : 0
        },
        {
            "name" : "xr_standard_trigger_pressed_max"
        },
        {
            "name" : "xr_standard_trigger_pressed_min"
        },
        {
            "name" : "xr_standard_trigger_pressed_value"
        },
        {
            "children" : [
                25,
                26,
                27,
                28,
                0,
                1,
                2,
                3,
                4,
                5,
                6,
                7,
                8,
                9,
                10,
                11,
                12,
                13,
                14,
                15,
                16,
                17,
                18,
                19,
                20,
                21,
                22,
                23,
                24
            ],
            "name" : "Armature.001"
        }
    ],
    "meshes" : [
        {
            "name" : "Skeleton.002",
            "primitives" : [
                {
                    "attributes" : {
                        "POSITION" : 0,
                        "NORMAL" : 1,
                        "TEXCOORD_0" : 2,
                        "JOINTS_0" : 3,
                        "WEIGHTS_0" : 4
                    },
                    "indices" : 5
                }
            ]
        }
    ],
    "skins" : [
        {
            "inverseBindMatrices" : 6,
            "joints" : [
                0,
                1,
                2,
                3,
                4,
                5,
                6,
                7,
                8,
                9,
                10,
                11,
                12,
                13,
                14,
                15,
                16,
                17,
                18,
                19,
                20,
                21,
                22,
                23,
                24
            ],
            "name" : "Armature.001"
        }
    ],
    "accessors" : [
        {
            "bufferView" : 0,
            "componentType" : 5126,
            "count" : 577,
            "max" : [
                0.08148223161697388,
                0.009196912869811058,
                0.054722823202610016
            ],
            "min" : [
                -0.05452645942568779,
                -0.17845933139324188,
                -0.012778084725141525
            ],
            "type" : "VEC3"
        },
        {
            "bufferView" : 1,
            "componentType" : 5126,
            "count" : 577,
            "type" : "VEC3"
        },
        {
            "bufferView" : 2,
            "componentType" : 5126,
            "count" : 577,
            "type" : "VEC2"
        },
        {
            "bufferView" : 3,
            "componentType" : 5121,
            "count" : 577,
            "type" : "VEC4"
        },
        {
            "bufferView" : 4,
            "componentType" : 5126,
            "count" : 577,
            "type" : "VEC4"
        },
        {
            "bufferView" : 5,
            "componentType" : 5123,
            "count" : 2520,
            "type" : "SCALAR"
        },
        {
            "bufferView" : 6,
            "componentType" : 5126,
            "count" : 25,
            "type" : "MAT4"
        }
    ],
    "bufferViews" : [
        {
            "buffer" : 0,
            "byteLength" : 6924,
            "byteOffset" : 0
        },
        {
            "buffer" : 0,
            "byteLength" : 6924,
            "byteOffset" : 6924
        },
        {
            "buffer" : 0,
            "byteLength" : 4616,
            "byteOffset" : 13848
        },
        {
            "buffer" : 0,
            "byteLength" : 2308,
            "byteOffset" : 18464
        },
        {
            "buffer" : 0,
            "byteLength" : 9232,
            "byteOffset" : 20772
        },
        {
            "buffer" : 0,
            "byteLength" : 5040,
            "byteOffset" : 30004
        },
        {
            "buffer" : 0,
            "byteLength" : 1600,
            "byteOffset" : 35044
        }
    ],
    "buffers" : [
        {
            "byteLength" : 36644,
            "uri" : "data:application/octet-stream;base64,"
        }
    ]
}
