<?xml version="1.0" encoding="UTF-8" standalone="no"?>
<!-- Created with Inkscape (http://www.inkscape.org/) -->

<svg
   width="210mm"
   height="297mm"
   viewBox="0 0 210 297"
   version="1.1"
   id="svg1"
   xml:space="preserve"
   inkscape:version="1.3 (0e150ed6c4, 2023-07-21)"
   sodipodi:docname="logo_RYTM.svg"
   xmlns:inkscape="http://www.inkscape.org/namespaces/inkscape"
   xmlns:sodipodi="http://sodipodi.sourceforge.net/DTD/sodipodi-0.dtd"
   xmlns="http://www.w3.org/2000/svg"
   xmlns:svg="http://www.w3.org/2000/svg"><sodipodi:namedview
     id="namedview1"
     pagecolor="#505050"
     bordercolor="#eeeeee"
     borderopacity="1"
     inkscape:showpageshadow="0"
     inkscape:pageopacity="0"
     inkscape:pagecheckerboard="0"
     inkscape:deskcolor="#d1d1d1"
     inkscape:document-units="mm"
     inkscape:zoom="0.72426347"
     inkscape:cx="396.26464"
     inkscape:cy="561.25984"
     inkscape:window-width="1920"
     inkscape:window-height="1011"
     inkscape:window-x="0"
     inkscape:window-y="32"
     inkscape:window-maximized="1"
     inkscape:current-layer="g12" /><defs
     id="defs1" /><g
     inkscape:label="Livello 1"
     inkscape:groupmode="layer"
     id="layer1"><g
       style="clip-rule:evenodd;fill-rule:evenodd;stroke-linejoin:round;stroke-miterlimit:2"
       id="g1"
       transform="matrix(0.26458333,0,0,0.26458333,-0.09416011,38.254988)"><circle
         style="clip-rule:evenodd;fill:#bf0404;fill-rule:evenodd;stroke:none;stroke-width:5.05233;stroke-linecap:round;stroke-linejoin:round;stroke-miterlimit:2;paint-order:stroke fill markers"
         id="path1"
         cx="401.82196"
         cy="409.97095"
         r="375.30569" /><g
         id="g12"
         transform="translate(1.8219604,10.593)"><g
           id="g9">&#10;        <g
   transform="translate(0,-64.723)"
   id="g2">&#10;            <rect
   x="193.114"
   y="324.44199"
   width="413.772"
   height="280.56201"
   style="fill:none"
   id="rect2" />&#10;        </g>&#10;        <g
   transform="translate(0,-64.723)"
   id="g8">&#10;            <g
   transform="matrix(0.780272,0,0,0.780272,193.114,194.304)"
   id="g3">&#10;                <path
   d="M 502.071,166.953 H 489.51 c 0.068,-0.378 0.241,-0.722 0.241,-1.152 0,-6.092 -4.939,-11.048 -11.065,-11.048 H 470.22 L 360.129,100.96 c -4.199,-2.048 -9.275,-0.292 -11.323,3.906 -2.065,4.199 -0.327,9.275 3.889,11.34 l 83.643,40.87 c -2.685,2.048 -4.578,5.128 -4.578,8.725 0,0.43 0.207,0.774 0.241,1.152 H 28.22 C 12.596,166.953 0,179.653 0,195.226 v 302.926 c 0,15.555 12.596,28.203 28.22,28.203 h 473.868 c 15.555,0 28.204,-12.648 28.204,-28.203 V 195.226 c -0.017,-15.573 -12.649,-28.273 -28.221,-28.273 z"
   style="fill:#ffffff;fill-rule:nonzero"
   id="path2" />&#10;            </g>&#10;            <g
   transform="translate(7.06488,71.4161)"
   id="g4">&#10;                <circle
   cx="400"
   cy="400"
   r="80.408997"
   id="circle3" />&#10;            </g>&#10;            <g
   id="g7">&#10;                <g
   transform="matrix(1.11661,0,0,1.11661,-32.7166,14.6591)"
   id="g5">&#10;                    <circle
   cx="387.52701"
   cy="403.06299"
   r="72.012001"
   style="fill:#bf0404"
   id="circle4" />&#10;                </g>&#10;                <g
   transform="matrix(0,0.606276,-0.606276,0,676.213,209.366)"
   id="g6">&#10;                    <path
   d="m 421.189,375.011 68.312,136.624 H 352.877 Z"
   style="fill:#ffffff"
   id="path5" />&#10;                </g>&#10;            </g>&#10;        </g>&#10;    </g><g
           transform="matrix(1,0,0,1.40497,-3.44298,-229.462)"
           id="g10">&#10;        <path
   d="m 274.23,547.46 c 0,-1.488 -1.697,-2.696 -3.787,-2.696 h -42.251 c -2.091,0 -3.788,1.208 -3.788,2.696 v 5.392 c 0,1.488 1.697,2.696 3.788,2.696 h 42.251 c 2.09,0 3.787,-1.208 3.787,-2.696 z"
   style="fill:#ffffff"
   id="path9" />&#10;    </g><g
           transform="matrix(1,0,0,1.40497,304.808,-229.462)"
           id="g11">&#10;        <path
   d="m 274.23,547.46 c 0,-1.488 -1.697,-2.696 -3.787,-2.696 h -42.251 c -2.091,0 -3.788,1.208 -3.788,2.696 v 5.392 c 0,1.488 1.697,2.696 3.788,2.696 h 42.251 c 2.09,0 3.787,-1.208 3.787,-2.696 z"
   style="fill:#ffffff"
   id="path10" />&#10;    </g></g></g></g></svg>
