<?xml version="1.0" encoding="UTF-8" standalone="no"?>
<!DOCTYPE svg PUBLIC "-//W3C//DTD SVG 1.1//EN" "http://www.w3.org/Graphics/SVG/1.1/DTD/svg11.dtd">
<svg width="100%" height="100%" viewBox="0 0 2079 2953" version="1.1" xmlns="http://www.w3.org/2000/svg" xmlns:xlink="http://www.w3.org/1999/xlink" xml:space="preserve" xmlns:serif="http://www.serif.com/" style="fill-rule:evenodd;clip-rule:evenodd;stroke-miterlimit:10;">
    <g transform="matrix(1.38524,0,0,1.38524,-188.658,-888.177)">
        <circle cx="880.739" cy="1739.19" r="740.283" style="fill:rgb(173,179,175);"/>
        <clipPath id="_clip1">
            <circle cx="880.739" cy="1739.19" r="740.283"/>
        </clipPath>
        <g clip-path="url(#_clip1)">
            <g transform="matrix(4.16667,0,0,4.16667,-108.373,83.7661)">
                <rect x="0" y="0" width="498.898" height="708.661" style="fill:rgb(44,62,80);"/>
                <g transform="matrix(0.24,0,0,0.24,0,0)">
                    <g transform="matrix(1,0,0,1,570.526,492.983)">
                        <text x="411.573px" y="274.611px" style="font-family:'FuturaBT-Bold', 'Futura Md BT', sans-serif;font-weight:700;font-size:208.333px;fill:rgb(82,99,122);">0</text>
                    </g>
                    <g transform="matrix(1,0,0,1,570.667,391)">
                        <text x="418.553px" y="180.374px" style="font-family:'FuturaBT-Bold', 'Futura Md BT', sans-serif;font-weight:700;font-size:208.333px;fill:rgb(82,99,122);">1</text>
                    </g>
                    <g transform="matrix(1,0,0,1,570.526,886.983)">
                        <text x="411.573px" y="274.611px" style="font-family:'FuturaBT-Bold', 'Futura Md BT', sans-serif;font-weight:700;font-size:208.333px;fill:rgb(82,99,122);">0</text>
                    </g>
                    <g transform="matrix(1,0,0,1,570.667,785)">
                        <text x="418.553px" y="180.374px" style="font-family:'FuturaBT-Bold', 'Futura Md BT', sans-serif;font-weight:700;font-size:208.333px;fill:rgb(82,99,122);">1</text>
                    </g>
                    <g transform="matrix(1,0,0,1,570.526,1280.98)">
                        <text x="411.573px" y="274.611px" style="font-family:'FuturaBT-Bold', 'Futura Md BT', sans-serif;font-weight:700;font-size:208.333px;fill:rgb(82,99,122);">0</text>
                    </g>
                    <g transform="matrix(1,0,0,1,570.667,1179)">
                        <text x="418.553px" y="180.374px" style="font-family:'FuturaBT-Bold', 'Futura Md BT', sans-serif;font-weight:700;font-size:208.333px;fill:rgb(82,99,122);">1</text>
                    </g>
                    <g transform="matrix(1,0,0,1,570.526,1674.98)">
                        <text x="411.573px" y="274.611px" style="font-family:'FuturaBT-Bold', 'Futura Md BT', sans-serif;font-weight:700;font-size:208.333px;fill:rgb(82,99,122);">0</text>
                    </g>
                    <g transform="matrix(1,0,0,1,570.667,1573)">
                        <text x="418.553px" y="180.374px" style="font-family:'FuturaBT-Bold', 'Futura Md BT', sans-serif;font-weight:700;font-size:208.333px;fill:rgb(82,99,122);">1</text>
                    </g>
                    <g transform="matrix(1,0,0,1,570.526,2068.98)">
                        <text x="411.573px" y="274.611px" style="font-family:'FuturaBT-Bold', 'Futura Md BT', sans-serif;font-weight:700;font-size:208.333px;fill:rgb(82,99,122);">0</text>
                    </g>
                    <g transform="matrix(1,0,0,1,570.667,1967)">
                        <text x="418.553px" y="180.374px" style="font-family:'FuturaBT-Bold', 'Futura Md BT', sans-serif;font-weight:700;font-size:208.333px;fill:rgb(82,99,122);">1</text>
                    </g>
                    <g transform="matrix(1,0,0,1,570.526,2462.98)">
                        <text x="411.573px" y="274.611px" style="font-family:'FuturaBT-Bold', 'Futura Md BT', sans-serif;font-weight:700;font-size:208.333px;fill:rgb(82,99,122);">0</text>
                    </g>
                    <g transform="matrix(1,0,0,1,570.667,2361)">
                        <text x="418.553px" y="180.374px" style="font-family:'FuturaBT-Bold', 'Futura Md BT', sans-serif;font-weight:700;font-size:208.333px;fill:rgb(82,99,122);">1</text>
                    </g>
                    <g transform="matrix(1,0,0,1,762.526,299.983)">
                        <text x="411.573px" y="274.611px" style="font-family:'FuturaBT-Bold', 'Futura Md BT', sans-serif;font-weight:700;font-size:208.333px;fill:rgb(82,99,122);">0</text>
                    </g>
                    <g transform="matrix(1,0,0,1,762.526,693.983)">
                        <text x="411.573px" y="274.611px" style="font-family:'FuturaBT-Bold', 'Futura Md BT', sans-serif;font-weight:700;font-size:208.333px;fill:rgb(82,99,122);">0</text>
                    </g>
                    <g transform="matrix(1,0,0,1,762.667,592)">
                        <text x="418.553px" y="180.374px" style="font-family:'FuturaBT-Bold', 'Futura Md BT', sans-serif;font-weight:700;font-size:208.333px;fill:rgb(82,99,122);">1</text>
                    </g>
                    <g transform="matrix(1,0,0,1,762.526,1087.98)">
                        <text x="411.573px" y="274.611px" style="font-family:'FuturaBT-Bold', 'Futura Md BT', sans-serif;font-weight:700;font-size:208.333px;fill:rgb(82,99,122);">0</text>
                    </g>
                    <g transform="matrix(1,0,0,1,762.667,986)">
                        <text x="418.553px" y="180.374px" style="font-family:'FuturaBT-Bold', 'Futura Md BT', sans-serif;font-weight:700;font-size:208.333px;fill:rgb(82,99,122);">1</text>
                    </g>
                    <g transform="matrix(1,0,0,1,762.526,1481.98)">
                        <text x="411.573px" y="274.611px" style="font-family:'FuturaBT-Bold', 'Futura Md BT', sans-serif;font-weight:700;font-size:208.333px;fill:rgb(82,99,122);">0</text>
                    </g>
                    <g transform="matrix(1,0,0,1,762.667,1380)">
                        <text x="418.553px" y="180.374px" style="font-family:'FuturaBT-Bold', 'Futura Md BT', sans-serif;font-weight:700;font-size:208.333px;fill:rgb(82,99,122);">1</text>
                    </g>
                    <g transform="matrix(1,0,0,1,762.526,1875.98)">
                        <text x="411.573px" y="274.611px" style="font-family:'FuturaBT-Bold', 'Futura Md BT', sans-serif;font-weight:700;font-size:208.333px;fill:rgb(82,99,122);">0</text>
                    </g>
                    <g transform="matrix(1,0,0,1,762.667,1774)">
                        <text x="418.553px" y="180.374px" style="font-family:'FuturaBT-Bold', 'Futura Md BT', sans-serif;font-weight:700;font-size:208.333px;fill:rgb(82,99,122);">1</text>
                    </g>
                    <g transform="matrix(1,0,0,1,762.526,2269.98)">
                        <text x="411.573px" y="274.611px" style="font-family:'FuturaBT-Bold', 'Futura Md BT', sans-serif;font-weight:700;font-size:208.333px;fill:rgb(82,99,122);">0</text>
                    </g>
                    <g transform="matrix(1,0,0,1,762.667,2168)">
                        <text x="418.553px" y="180.374px" style="font-family:'FuturaBT-Bold', 'Futura Md BT', sans-serif;font-weight:700;font-size:208.333px;fill:rgb(82,99,122);">1</text>
                    </g>
                    <g transform="matrix(1,0,0,1,762.667,2562)">
                        <text x="418.553px" y="180.374px" style="font-family:'FuturaBT-Bold', 'Futura Md BT', sans-serif;font-weight:700;font-size:208.333px;fill:rgb(82,99,122);">1</text>
                    </g>
                    <g transform="matrix(1,0,0,1,186.526,492.983)">
                        <text x="411.573px" y="274.611px" style="font-family:'FuturaBT-Bold', 'Futura Md BT', sans-serif;font-weight:700;font-size:208.333px;fill:rgb(82,99,122);">0</text>
                    </g>
                    <g transform="matrix(1,0,0,1,186.667,391)">
                        <text x="418.553px" y="180.374px" style="font-family:'FuturaBT-Bold', 'Futura Md BT', sans-serif;font-weight:700;font-size:208.333px;fill:rgb(82,99,122);">1</text>
                    </g>
                    <g transform="matrix(1,0,0,1,186.526,886.983)">
                        <text x="411.573px" y="274.611px" style="font-family:'FuturaBT-Bold', 'Futura Md BT', sans-serif;font-weight:700;font-size:208.333px;fill:rgb(82,99,122);">0</text>
                    </g>
                    <g transform="matrix(1,0,0,1,186.667,785)">
                        <text x="418.553px" y="180.374px" style="font-family:'FuturaBT-Bold', 'Futura Md BT', sans-serif;font-weight:700;font-size:208.333px;fill:rgb(82,99,122);">1</text>
                    </g>
                    <g transform="matrix(1,0,0,1,186.526,1280.98)">
                        <text x="411.573px" y="274.611px" style="font-family:'FuturaBT-Bold', 'Futura Md BT', sans-serif;font-weight:700;font-size:208.333px;fill:rgb(82,99,122);">0</text>
                    </g>
                    <g transform="matrix(1,0,0,1,186.667,1179)">
                        <text x="418.553px" y="180.374px" style="font-family:'FuturaBT-Bold', 'Futura Md BT', sans-serif;font-weight:700;font-size:208.333px;fill:rgb(82,99,122);">1</text>
                    </g>
                    <g transform="matrix(1,0,0,1,186.526,1674.98)">
                        <text x="411.573px" y="274.611px" style="font-family:'FuturaBT-Bold', 'Futura Md BT', sans-serif;font-weight:700;font-size:208.333px;fill:rgb(82,99,122);">0</text>
                    </g>
                    <g transform="matrix(1,0,0,1,186.667,1573)">
                        <text x="418.553px" y="180.374px" style="font-family:'FuturaBT-Bold', 'Futura Md BT', sans-serif;font-weight:700;font-size:208.333px;fill:rgb(82,99,122);">1</text>
                    </g>
                    <g transform="matrix(1,0,0,1,186.526,2068.98)">
                        <text x="411.573px" y="274.611px" style="font-family:'FuturaBT-Bold', 'Futura Md BT', sans-serif;font-weight:700;font-size:208.333px;fill:rgb(82,99,122);">0</text>
                    </g>
                    <g transform="matrix(1,0,0,1,186.667,1967)">
                        <text x="418.553px" y="180.374px" style="font-family:'FuturaBT-Bold', 'Futura Md BT', sans-serif;font-weight:700;font-size:208.333px;fill:rgb(82,99,122);">1</text>
                    </g>
                    <g transform="matrix(1,0,0,1,186.526,2462.98)">
                        <text x="411.573px" y="274.611px" style="font-family:'FuturaBT-Bold', 'Futura Md BT', sans-serif;font-weight:700;font-size:208.333px;fill:rgb(82,99,122);">0</text>
                    </g>
                    <g transform="matrix(1,0,0,1,186.667,2361)">
                        <text x="418.553px" y="180.374px" style="font-family:'FuturaBT-Bold', 'Futura Md BT', sans-serif;font-weight:700;font-size:208.333px;fill:rgb(82,99,122);">1</text>
                    </g>
                    <g transform="matrix(1,0,0,1,378.526,299.983)">
                        <text x="411.573px" y="274.611px" style="font-family:'FuturaBT-Bold', 'Futura Md BT', sans-serif;font-weight:700;font-size:208.333px;fill:rgb(82,99,122);">0</text>
                    </g>
                    <g transform="matrix(1,0,0,1,378.526,693.983)">
                        <text x="411.573px" y="274.611px" style="font-family:'FuturaBT-Bold', 'Futura Md BT', sans-serif;font-weight:700;font-size:208.333px;fill:rgb(82,99,122);">0</text>
                    </g>
                    <g transform="matrix(1,0,0,1,378.667,592)">
                        <text x="418.553px" y="180.374px" style="font-family:'FuturaBT-Bold', 'Futura Md BT', sans-serif;font-weight:700;font-size:208.333px;fill:rgb(82,99,122);">1</text>
                    </g>
                    <g transform="matrix(1,0,0,1,378.526,1087.98)">
                        <text x="411.573px" y="274.611px" style="font-family:'FuturaBT-Bold', 'Futura Md BT', sans-serif;font-weight:700;font-size:208.333px;fill:rgb(82,99,122);">0</text>
                    </g>
                    <g transform="matrix(1,0,0,1,378.667,986)">
                        <text x="418.553px" y="180.374px" style="font-family:'FuturaBT-Bold', 'Futura Md BT', sans-serif;font-weight:700;font-size:208.333px;fill:rgb(82,99,122);">1</text>
                    </g>
                    <g transform="matrix(1,0,0,1,378.526,1481.98)">
                        <text x="411.573px" y="274.611px" style="font-family:'FuturaBT-Bold', 'Futura Md BT', sans-serif;font-weight:700;font-size:208.333px;fill:rgb(82,99,122);">0</text>
                    </g>
                    <g transform="matrix(1,0,0,1,378.667,1380)">
                        <text x="418.553px" y="180.374px" style="font-family:'FuturaBT-Bold', 'Futura Md BT', sans-serif;font-weight:700;font-size:208.333px;fill:rgb(82,99,122);">1</text>
                    </g>
                    <g transform="matrix(1,0,0,1,378.526,1875.98)">
                        <text x="411.573px" y="274.611px" style="font-family:'FuturaBT-Bold', 'Futura Md BT', sans-serif;font-weight:700;font-size:208.333px;fill:rgb(82,99,122);">0</text>
                    </g>
                    <g transform="matrix(1,0,0,1,378.667,1774)">
                        <text x="418.553px" y="180.374px" style="font-family:'FuturaBT-Bold', 'Futura Md BT', sans-serif;font-weight:700;font-size:208.333px;fill:rgb(82,99,122);">1</text>
                    </g>
                    <g transform="matrix(1,0,0,1,378.526,2269.98)">
                        <text x="411.573px" y="274.611px" style="font-family:'FuturaBT-Bold', 'Futura Md BT', sans-serif;font-weight:700;font-size:208.333px;fill:rgb(82,99,122);">0</text>
                    </g>
                    <g transform="matrix(1,0,0,1,378.667,2168)">
                        <text x="418.553px" y="180.374px" style="font-family:'FuturaBT-Bold', 'Futura Md BT', sans-serif;font-weight:700;font-size:208.333px;fill:rgb(82,99,122);">1</text>
                    </g>
                    <g transform="matrix(1,0,0,1,378.667,2562)">
                        <text x="418.553px" y="180.374px" style="font-family:'FuturaBT-Bold', 'Futura Md BT', sans-serif;font-weight:700;font-size:208.333px;fill:rgb(82,99,122);">1</text>
                    </g>
                    <g transform="matrix(1,0,0,1,954.526,492.983)">
                        <text x="411.573px" y="274.611px" style="font-family:'FuturaBT-Bold', 'Futura Md BT', sans-serif;font-weight:700;font-size:208.333px;fill:rgb(82,99,122);">0</text>
                    </g>
                    <g transform="matrix(1,0,0,1,954.667,391)">
                        <text x="418.553px" y="180.374px" style="font-family:'FuturaBT-Bold', 'Futura Md BT', sans-serif;font-weight:700;font-size:208.333px;fill:rgb(82,99,122);">1</text>
                    </g>
                    <g transform="matrix(1,0,0,1,954.526,886.983)">
                        <text x="411.573px" y="274.611px" style="font-family:'FuturaBT-Bold', 'Futura Md BT', sans-serif;font-weight:700;font-size:208.333px;fill:rgb(82,99,122);">0</text>
                    </g>
                    <g transform="matrix(1,0,0,1,954.667,785)">
                        <text x="418.553px" y="180.374px" style="font-family:'FuturaBT-Bold', 'Futura Md BT', sans-serif;font-weight:700;font-size:208.333px;fill:rgb(82,99,122);">1</text>
                    </g>
                    <g transform="matrix(1,0,0,1,954.526,1280.98)">
                        <text x="411.573px" y="274.611px" style="font-family:'FuturaBT-Bold', 'Futura Md BT', sans-serif;font-weight:700;font-size:208.333px;fill:rgb(82,99,122);">0</text>
                    </g>
                    <g transform="matrix(1,0,0,1,954.667,1179)">
                        <text x="418.553px" y="180.374px" style="font-family:'FuturaBT-Bold', 'Futura Md BT', sans-serif;font-weight:700;font-size:208.333px;fill:rgb(82,99,122);">1</text>
                    </g>
                    <g transform="matrix(1,0,0,1,954.526,1674.98)">
                        <text x="411.573px" y="274.611px" style="font-family:'FuturaBT-Bold', 'Futura Md BT', sans-serif;font-weight:700;font-size:208.333px;fill:rgb(82,99,122);">0</text>
                    </g>
                    <g transform="matrix(1,0,0,1,954.667,1573)">
                        <text x="418.553px" y="180.374px" style="font-family:'FuturaBT-Bold', 'Futura Md BT', sans-serif;font-weight:700;font-size:208.333px;fill:rgb(82,99,122);">1</text>
                    </g>
                    <g transform="matrix(1,0,0,1,954.526,2068.98)">
                        <text x="411.573px" y="274.611px" style="font-family:'FuturaBT-Bold', 'Futura Md BT', sans-serif;font-weight:700;font-size:208.333px;fill:rgb(82,99,122);">0</text>
                    </g>
                    <g transform="matrix(1,0,0,1,954.667,1967)">
                        <text x="418.553px" y="180.374px" style="font-family:'FuturaBT-Bold', 'Futura Md BT', sans-serif;font-weight:700;font-size:208.333px;fill:rgb(82,99,122);">1</text>
                    </g>
                    <g transform="matrix(1,0,0,1,954.526,2462.98)">
                        <text x="411.573px" y="274.611px" style="font-family:'FuturaBT-Bold', 'Futura Md BT', sans-serif;font-weight:700;font-size:208.333px;fill:rgb(82,99,122);">0</text>
                    </g>
                    <g transform="matrix(1,0,0,1,954.667,2361)">
                        <text x="418.553px" y="180.374px" style="font-family:'FuturaBT-Bold', 'Futura Md BT', sans-serif;font-weight:700;font-size:208.333px;fill:rgb(82,99,122);">1</text>
                    </g>
                    <g transform="matrix(1,0,0,1,1146.53,299.983)">
                        <text x="411.573px" y="274.611px" style="font-family:'FuturaBT-Bold', 'Futura Md BT', sans-serif;font-weight:700;font-size:208.333px;fill:rgb(82,99,122);">0</text>
                    </g>
                    <g transform="matrix(1,0,0,1,1146.53,693.983)">
                        <text x="411.573px" y="274.611px" style="font-family:'FuturaBT-Bold', 'Futura Md BT', sans-serif;font-weight:700;font-size:208.333px;fill:rgb(82,99,122);">0</text>
                    </g>
                    <g transform="matrix(1,0,0,1,1146.67,592)">
                        <text x="418.553px" y="180.374px" style="font-family:'FuturaBT-Bold', 'Futura Md BT', sans-serif;font-weight:700;font-size:208.333px;fill:rgb(82,99,122);">1</text>
                    </g>
                    <g transform="matrix(1,0,0,1,1146.53,1087.98)">
                        <text x="411.573px" y="274.611px" style="font-family:'FuturaBT-Bold', 'Futura Md BT', sans-serif;font-weight:700;font-size:208.333px;fill:rgb(82,99,122);">0</text>
                    </g>
                    <g transform="matrix(1,0,0,1,1146.67,986)">
                        <text x="418.553px" y="180.374px" style="font-family:'FuturaBT-Bold', 'Futura Md BT', sans-serif;font-weight:700;font-size:208.333px;fill:rgb(82,99,122);">1</text>
                    </g>
                    <g transform="matrix(1,0,0,1,1146.53,1481.98)">
                        <text x="411.573px" y="274.611px" style="font-family:'FuturaBT-Bold', 'Futura Md BT', sans-serif;font-weight:700;font-size:208.333px;fill:rgb(82,99,122);">0</text>
                    </g>
                    <g transform="matrix(1,0,0,1,1146.67,1380)">
                        <text x="418.553px" y="180.374px" style="font-family:'FuturaBT-Bold', 'Futura Md BT', sans-serif;font-weight:700;font-size:208.333px;fill:rgb(82,99,122);">1</text>
                    </g>
                    <g transform="matrix(1,0,0,1,1146.53,1875.98)">
                        <text x="411.573px" y="274.611px" style="font-family:'FuturaBT-Bold', 'Futura Md BT', sans-serif;font-weight:700;font-size:208.333px;fill:rgb(82,99,122);">0</text>
                    </g>
                    <g transform="matrix(1,0,0,1,1146.67,1774)">
                        <text x="418.553px" y="180.374px" style="font-family:'FuturaBT-Bold', 'Futura Md BT', sans-serif;font-weight:700;font-size:208.333px;fill:rgb(82,99,122);">1</text>
                    </g>
                    <g transform="matrix(1,0,0,1,1146.53,2269.98)">
                        <text x="411.573px" y="274.611px" style="font-family:'FuturaBT-Bold', 'Futura Md BT', sans-serif;font-weight:700;font-size:208.333px;fill:rgb(82,99,122);">0</text>
                    </g>
                    <g transform="matrix(1,0,0,1,1146.67,2168)">
                        <text x="418.553px" y="180.374px" style="font-family:'FuturaBT-Bold', 'Futura Md BT', sans-serif;font-weight:700;font-size:208.333px;fill:rgb(82,99,122);">1</text>
                    </g>
                    <g transform="matrix(1,0,0,1,1146.67,2562)">
                        <text x="418.553px" y="180.374px" style="font-family:'FuturaBT-Bold', 'Futura Md BT', sans-serif;font-weight:700;font-size:208.333px;fill:rgb(82,99,122);">1</text>
                    </g>
                    <g transform="matrix(1,0,0,1,-197.474,492.983)">
                        <text x="411.573px" y="274.611px" style="font-family:'FuturaBT-Bold', 'Futura Md BT', sans-serif;font-weight:700;font-size:208.333px;fill:rgb(82,99,122);">0</text>
                    </g>
                    <g transform="matrix(1,0,0,1,-197.333,391)">
                        <text x="418.553px" y="180.374px" style="font-family:'FuturaBT-Bold', 'Futura Md BT', sans-serif;font-weight:700;font-size:208.333px;fill:rgb(82,99,122);">1</text>
                    </g>
                    <g transform="matrix(1,0,0,1,-197.474,886.983)">
                        <text x="411.573px" y="274.611px" style="font-family:'FuturaBT-Bold', 'Futura Md BT', sans-serif;font-weight:700;font-size:208.333px;fill:rgb(82,99,122);">0</text>
                    </g>
                    <g transform="matrix(1,0,0,1,-197.333,785)">
                        <text x="418.553px" y="180.374px" style="font-family:'FuturaBT-Bold', 'Futura Md BT', sans-serif;font-weight:700;font-size:208.333px;fill:rgb(82,99,122);">1</text>
                    </g>
                    <g transform="matrix(1,0,0,1,-197.474,1280.98)">
                        <text x="411.573px" y="274.611px" style="font-family:'FuturaBT-Bold', 'Futura Md BT', sans-serif;font-weight:700;font-size:208.333px;fill:rgb(82,99,122);">0</text>
                    </g>
                    <g transform="matrix(1,0,0,1,-197.333,1179)">
                        <text x="418.553px" y="180.374px" style="font-family:'FuturaBT-Bold', 'Futura Md BT', sans-serif;font-weight:700;font-size:208.333px;fill:rgb(82,99,122);">1</text>
                    </g>
                    <g transform="matrix(1,0,0,1,-197.474,1674.98)">
                        <text x="411.573px" y="274.611px" style="font-family:'FuturaBT-Bold', 'Futura Md BT', sans-serif;font-weight:700;font-size:208.333px;fill:rgb(82,99,122);">0</text>
                    </g>
                    <g transform="matrix(1,0,0,1,-197.333,1573)">
                        <text x="418.553px" y="180.374px" style="font-family:'FuturaBT-Bold', 'Futura Md BT', sans-serif;font-weight:700;font-size:208.333px;fill:rgb(82,99,122);">1</text>
                    </g>
                    <g transform="matrix(1,0,0,1,-197.474,2068.98)">
                        <text x="411.573px" y="274.611px" style="font-family:'FuturaBT-Bold', 'Futura Md BT', sans-serif;font-weight:700;font-size:208.333px;fill:rgb(82,99,122);">0</text>
                    </g>
                    <g transform="matrix(1,0,0,1,-197.333,1967)">
                        <text x="418.553px" y="180.374px" style="font-family:'FuturaBT-Bold', 'Futura Md BT', sans-serif;font-weight:700;font-size:208.333px;fill:rgb(82,99,122);">1</text>
                    </g>
                    <g transform="matrix(1,0,0,1,-197.474,2462.98)">
                        <text x="411.573px" y="274.611px" style="font-family:'FuturaBT-Bold', 'Futura Md BT', sans-serif;font-weight:700;font-size:208.333px;fill:rgb(82,99,122);">0</text>
                    </g>
                    <g transform="matrix(1,0,0,1,-197.333,2361)">
                        <text x="418.553px" y="180.374px" style="font-family:'FuturaBT-Bold', 'Futura Md BT', sans-serif;font-weight:700;font-size:208.333px;fill:rgb(82,99,122);">1</text>
                    </g>
                    <g transform="matrix(1,0,0,1,-5.47357,299.983)">
                        <text x="411.573px" y="274.611px" style="font-family:'FuturaBT-Bold', 'Futura Md BT', sans-serif;font-weight:700;font-size:208.333px;fill:rgb(82,99,122);">0</text>
                    </g>
                    <g transform="matrix(1,0,0,1,-5.47357,693.983)">
                        <text x="411.573px" y="274.611px" style="font-family:'FuturaBT-Bold', 'Futura Md BT', sans-serif;font-weight:700;font-size:208.333px;fill:rgb(82,99,122);">0</text>
                    </g>
                    <g transform="matrix(1,0,0,1,-5.33319,592)">
                        <text x="418.553px" y="180.374px" style="font-family:'FuturaBT-Bold', 'Futura Md BT', sans-serif;font-weight:700;font-size:208.333px;fill:rgb(82,99,122);">1</text>
                    </g>
                    <g transform="matrix(1,0,0,1,-5.47357,1087.98)">
                        <text x="411.573px" y="274.611px" style="font-family:'FuturaBT-Bold', 'Futura Md BT', sans-serif;font-weight:700;font-size:208.333px;fill:rgb(82,99,122);">0</text>
                    </g>
                    <g transform="matrix(1,0,0,1,-5.33319,986)">
                        <text x="418.553px" y="180.374px" style="font-family:'FuturaBT-Bold', 'Futura Md BT', sans-serif;font-weight:700;font-size:208.333px;fill:rgb(82,99,122);">1</text>
                    </g>
                    <g transform="matrix(1,0,0,1,-5.47357,1481.98)">
                        <text x="411.573px" y="274.611px" style="font-family:'FuturaBT-Bold', 'Futura Md BT', sans-serif;font-weight:700;font-size:208.333px;fill:rgb(82,99,122);">0</text>
                    </g>
                    <g transform="matrix(1,0,0,1,-5.33319,1380)">
                        <text x="418.553px" y="180.374px" style="font-family:'FuturaBT-Bold', 'Futura Md BT', sans-serif;font-weight:700;font-size:208.333px;fill:rgb(82,99,122);">1</text>
                    </g>
                    <g transform="matrix(1,0,0,1,-5.47357,1875.98)">
                        <text x="411.573px" y="274.611px" style="font-family:'FuturaBT-Bold', 'Futura Md BT', sans-serif;font-weight:700;font-size:208.333px;fill:rgb(82,99,122);">0</text>
                    </g>
                    <g transform="matrix(1,0,0,1,-5.33319,1774)">
                        <text x="418.553px" y="180.374px" style="font-family:'FuturaBT-Bold', 'Futura Md BT', sans-serif;font-weight:700;font-size:208.333px;fill:rgb(82,99,122);">1</text>
                    </g>
                    <g transform="matrix(1,0,0,1,-5.47357,2269.98)">
                        <text x="411.573px" y="274.611px" style="font-family:'FuturaBT-Bold', 'Futura Md BT', sans-serif;font-weight:700;font-size:208.333px;fill:rgb(82,99,122);">0</text>
                    </g>
                    <g transform="matrix(1,0,0,1,-5.33319,2168)">
                        <text x="418.553px" y="180.374px" style="font-family:'FuturaBT-Bold', 'Futura Md BT', sans-serif;font-weight:700;font-size:208.333px;fill:rgb(82,99,122);">1</text>
                    </g>
                    <g transform="matrix(1,0,0,1,-5.33319,2562)">
                        <text x="418.553px" y="180.374px" style="font-family:'FuturaBT-Bold', 'Futura Md BT', sans-serif;font-weight:700;font-size:208.333px;fill:rgb(82,99,122);">1</text>
                    </g>
                </g>
            </g>
        </g>
    </g>
    <g id="Face" transform="matrix(5.77183,0,0,5.77183,-523.362,-604.892)">
        <g transform="matrix(1,0,0,1,2.90258,2.90258)">
            <g>
                <g transform="matrix(1,0,0,1,372.471,498.536)">
                    <path d="M0,-108.801L17.7,-82.71L4.57,-73.79L-53.28,-34.53L-128.37,16.439L-143.14,-5.33L-197.14,-84.87L-205.59,-97.33L-158.72,-123.401C-157.64,-124 -156.53,-124.611 -155.4,-125.24C-155.29,-123.261 -155.36,-121.601 -155.1,-119.95C-153.71,-111.111 -152.65,-104.391 -147.9,-99.311C-144.08,-95.231 -139.53,-93.981 -134.46,-92.591C-130.86,-91.601 -124.82,-90.42 -109.98,-92.111C-101.851,-93.04 -93.561,-93.981 -82.62,-97.391C-71.75,-100.78 -61.97,-103.83 -52.38,-112.271C-41.83,-121.561 -40.99,-123.92 -41.34,-125.231C-41.34,-125.231 -17.22,-114.441 0,-108.801" style="fill:rgb(29,29,27);fill-rule:nonzero;"/>
                </g>
                <g transform="matrix(1,0,0,1,337.131,270.785)">
                    <path d="M0,1.48C0.02,-5.19 -4.42,-13.47 -4.12,-11.9C-2.69,-4.46 -6.54,13.37 -3.641,13.78C-2.09,14 -0.021,7.58 0,1.48M-4.03,-21.45C-4.03,-21.45 7.989,-4.88 1.6,15.31C1.6,15.31 -1.141,22.93 -7.54,22.16L-7.931,22.15C-7.92,22.06 -7.92,21.97 -7.92,21.88C-7.73,14.34 -8.24,10.97 -8.5,7.14C-8.511,7.11 -8.511,7.07 -8.511,7.03C-8.67,4.65 -8.73,2.09 -8.471,-1.78C-7.9,-10.04 -6.82,-11.67 -6.48,-21.08C-6.48,-21.18 -6.471,-21.28 -6.471,-21.38L-6.24,-21.37L-4.03,-21.45Z" style="fill:rgb(242,177,140);fill-rule:nonzero;"/>
                </g>
                <g transform="matrix(1,0,0,1,333.011,283.215)">
                    <path d="M0,-24.33C-0.3,-25.9 4.14,-17.62 4.12,-10.95C4.1,-4.85 2.03,1.57 0.479,1.35C-2.42,0.94 1.43,-16.89 0,-24.33" style="fill:rgb(29,29,27);fill-rule:nonzero;"/>
                </g>
                <g transform="matrix(1,0,0,1,216.761,385.496)">
                    <path d="M0,-15.221C-0.09,-15.781 -0.21,-16.37 -0.35,-16.991C-1.17,-20.54 -2.35,-23.33 -3.23,-25.151L-5.05,-31.16C-2.76,-28.08 -0.1,-24.931 3.01,-21.79C11.23,-13.481 18.87,-8.991 24.13,-5.95C32.38,-1.181 36.689,-0.151 39.49,0.29C46.41,1.38 51.88,0.069 54.85,-0.67C66.319,-3.521 73.71,-10.061 80.05,-15.79C82.27,-17.801 90.41,-25.37 97.899,-37.841L97.81,-34.39C98.05,-32.791 98.55,-30.43 99.73,-27.79C100.16,-26.821 101.899,-23.091 106.09,-19.031C111.109,-14.151 113.75,-14.531 114.37,-12.191C114.72,-10.88 113.88,-8.521 103.33,0.769C93.74,9.21 83.96,12.259 73.09,15.649C62.149,19.059 53.859,20 45.73,20.929C30.89,22.62 24.85,21.439 21.25,20.449C16.18,19.059 11.63,17.809 7.81,13.729C3.06,8.649 2,1.929 0.61,-6.91C0.35,-8.561 0.42,-10.221 0.31,-12.2C0.26,-13.12 0.17,-14.12 0,-15.221" style="fill:rgb(242,177,140);fill-rule:nonzero;"/>
                </g>
                <g transform="matrix(1,0,0,1,186.251,145.136)">
                    <path d="M0,122.66C-0.17,120.15 -0.35,117.43 -0.56,114.41C-2.36,88.67 -7.26,81.19 -4.88,65.45C-3.61,57.08 -3.66,51.38 0.4,46.25C2.98,42.99 5.86,41.34 6.4,37.37C7.1,32.19 3.15,27.97 4.48,26.81C5.78,25.67 9.88,29.48 11.44,28.25C13.28,26.8 9.14,20.27 11.2,18.41C12.84,16.92 16.47,20.17 18.64,18.65C21.62,16.57 18.44,7.86 19.84,7.37C21.03,6.95 23.79,13.04 24.88,12.65C26.11,12.21 24,3.9 24.38,1.83C24.97,2.32 25.58,2.78 26.2,3.22C27.66,5.78 29.65,10.03 31.36,9.77C34.28,9.32 34.02,-3.97 36.4,-4.15C38.07,-4.28 39.22,2.19 41.2,2.09C43.51,1.98 44.6,-6.92 46,-6.79C47.05,-6.69 46.76,-1.7 48.4,-1.27C50.64,-0.68 53.91,-9.25 56.08,-8.71C57.96,-8.24 56.76,-1.47 58.72,-0.79C61.9,0.32 70.15,-15.83 71.44,-15.19C72.38,-14.72 68.31,-5.89 70.24,-4.63C71.33,-3.92 73.76,-5.98 75.43,-6.93C76.12,-7.31 76.67,-7.52 76.96,-7.27C78.01,-6.37 74.02,-0.72 74.8,-0.07C76.03,0.95 87.31,-11.88 89.44,-10.39C91.12,-9.22 85.21,-0.52 87.76,2.09C91.02,5.43 105.16,-4.21 106.96,-1.75C108.02,-0.31 103.86,3.97 104.8,4.97C106.13,6.39 115.55,-1.13 117.041,0.41C117.19,0.56 117.24,0.78 117.21,1.05C117.11,2.81 114.07,6.74 115.12,7.85C116.49,9.29 123.251,4.29 124.48,5.69C125.27,6.59 122.63,8.84 123.28,10.73C124.76,15.05 141.65,12.53 142.001,14.57C142.22,15.84 135.791,17.46 136.001,19.37C136.19,21.09 141.541,21.11 141.76,22.73C142.11,25.28 129.44,28.96 129.76,30.17C129.96,30.93 135.001,29.56 136.001,31.37C136.94,33.07 133.32,35.8 134.32,37.85C135.2,39.65 138.57,38.72 139.36,40.49C140.11,42.17 137.37,43.66 137.44,46.73C137.49,49 139.03,49.88 140.32,52.25C142.08,55.49 141.52,58.1 141.52,62.57C141.52,66.41 141.83,68.47 142.251,71.11C142.83,74.65 143.62,79.21 144.16,90.41C144.41,95.5 144.58,99.18 144.41,104.27C144.41,104.37 144.4,104.47 144.4,104.57C144.06,113.98 142.98,115.61 142.41,123.87C142.15,127.74 142.21,130.3 142.37,132.68L138.18,101.82L140.18,101.82C140.23,99.26 140.41,96.83 140.56,94.32C139.61,93.71 139.33,93.41 138.59,93.08L138.59,91.86C138.251,80.63 135.34,72.15 133.24,67.23C130.82,61.55 126.36,51.09 115.77,43.71C109.05,39.03 103.01,37.78 94.38,36C90.3,35.15 77.71,32.84 61.22,35.26C53.15,36.45 43.96,37.79 33.41,43.71C27.81,46.86 18.51,52.23 11.66,63.56C10.17,66.03 5.39,74.4 4.17,86.34C3.7,90.98 3.88,94.92 4.17,97.74L4.13,99.1C3.59,99.29 3.08,99.48 2.58,99.66L2.58,104.8C3.65,104.94 4.98,105.23 6.06,105.89L1.7,138.39L1.21,138.49C0.73,133.74 0.4,128.86 0,122.66" style="fill:rgb(29,29,27);fill-rule:nonzero;"/>
                </g>
                <g transform="matrix(1,0,0,1,195.951,340.935)">
                    <path d="M0,-17.07C-1.53,-21.38 -2.69,-25.48 -3.64,-29.46C-4.75,-34.06 -5.59,-38.51 -6.42,-42.99C-7.41,-48.32 -8.03,-52.75 -8.49,-57.31L-8,-57.41L-2.3,-45.84C-1.83,-42.42 -1.42,-41.07 0.35,-35.57C2.32,-29.44 3.7,-25.18 6.83,-21.41C12.56,-14.53 21.29,-12.79 26.03,-12.29C26.03,-12.29 19.07,33.55 65.87,34.99C112.669,36.43 108.11,-11.09 108.11,-11.09C109.419,-11.07 111.29,-11.17 113.39,-11.81C120.14,-13.89 123.57,-19.79 125.629,-23.33C130.48,-31.69 130.669,-40.1 130.43,-44.45L132.68,-63.01C132.94,-59.18 133.45,-55.81 133.26,-48.27C133.26,-48.18 133.26,-48.09 133.25,-48C133.06,-40.41 132.91,-34.99 131.82,-28.35C131.1,-23.95 128.51,-10.19 119.58,5.25C119.29,5.75 119,6.24 118.709,6.72C111.22,19.19 103.08,26.76 100.86,28.77C94.52,34.5 87.129,41.04 75.66,43.89C72.69,44.63 67.22,45.94 60.3,44.85C57.5,44.41 53.19,43.38 44.94,38.61C39.68,35.57 32.04,31.08 23.82,22.77C20.71,19.63 18.05,16.48 15.76,13.4L15.76,13.39C9.67,5.22 6.16,-2.42 3.66,-7.95C2.23,-11.11 1.03,-14.14 0,-17.07" style="fill:rgb(29,29,27);fill-rule:nonzero;"/>
                </g>
                <g transform="matrix(1,0,0,1,266.821,268.706)">
                    <path d="M0,86.229C0.24,80.219 10.08,68.729 10.08,68.729C-2.88,71.609 -14.48,68.729 -14.48,68.729C-2.8,80.009 0,86.229 0,86.229M61.8,9.109C61.8,9.149 61.8,9.189 61.811,9.219L59.561,27.779C59.8,32.129 59.61,40.539 54.76,48.899C52.7,52.439 49.271,58.339 42.521,60.419C40.42,61.059 38.55,61.159 37.24,61.139C37.24,61.139 41.8,108.66 -5,107.219C-51.8,105.779 -44.84,59.939 -44.84,59.939C-49.58,59.439 -58.31,57.699 -64.04,50.819C-67.17,47.049 -68.55,42.789 -70.52,36.659C-72.29,31.159 -72.7,29.809 -73.17,26.389L-78.87,14.819L-74.51,-17.681C-73.91,-17.321 -73.39,-16.851 -73.02,-16.231C-72.25,-14.971 -72.42,-13.601 -72.47,-13.111C-73.1,-6.811 -69.05,2.789 -68.87,3.209C-65.74,10.619 -58.05,14.109 -56.15,14.969C-47.01,19.109 -36.01,17.899 -28.31,12.329C-22.41,8.059 -19.97,2.319 -17.99,-2.311C-16.66,-5.421 -15.7,-8.571 -15.029,-11.451C-14.23,-14.891 -13.85,-17.951 -13.79,-20.141C-12.27,-20.851 -7.95,-22.431 -2.13,-20.761L0.49,-19.631C0.67,-17.821 0.9,-16.091 1.19,-14.461C2.34,-7.881 4.26,-2.791 5.76,0.369C7.601,4.269 9.13,7.419 12.41,9.959C16.04,12.769 19.65,13.169 24.79,13.739C30.65,14.389 34.74,14.849 39.69,12.729C46.42,9.859 49.98,4.289 51.15,2.389C54.25,-2.601 54.92,-7.501 55.74,-13.001C56.2,-16.111 56.38,-18.871 56.42,-21.101C56.44,-20.901 56.431,-20.791 56.431,-20.791L57.61,-21.751L61.8,9.109ZM-8.68,36.889L-9.08,37.589L-11.77,37.129C-12.069,37.079 -12.39,37.099 -12.68,37.189C-29.56,42.509 -37.25,52.719 -39.54,56.359C-40.02,57.119 -39.89,58.099 -39.26,58.719L-39.01,58.959C-38.48,59.479 -37.71,59.629 -37.03,59.379C-1.02,46.239 30.24,54.319 29.65,53.609C29.23,53.109 29.391,52.149 29.53,51.609C29.601,51.329 29.62,51.029 29.55,50.749C27.19,42.109 1.88,35.939 1.7,36.089C-2.2,39.179 -6.12,38.379 -8.68,36.889" style="fill:rgb(242,177,140);fill-rule:nonzero;"/>
                </g>
                <g transform="matrix(1,0,0,1,323.241,235.735)">
                    <path d="M0,11.8C-0.06,10.71 -0.54,7.47 -4.09,5.81C-6.8,4.53 -15.779,2.31 -26.84,2.9L-26.979,0.02C-24.5,-0.21 -21.779,-0.33 -18.27,-0.34C-8.1,-0.38 -4.66,0.46 0.011,1.91C0.75,2.14 1.23,2.32 1.601,2.48C2.34,2.81 2.62,3.11 3.57,3.72C3.42,6.23 3.24,8.66 3.19,11.22L1.19,11.22L0.011,12.18C0.011,12.18 0.021,12.07 0,11.87L0,11.8Z" style="fill:rgb(60,59,58);fill-rule:nonzero;"/>
                </g>
                <g transform="matrix(1,0,0,1,324.841,185.215)">
                    <path d="M0,51.78L0,53C-0.37,52.84 -0.851,52.66 -1.59,52.43C-6.261,50.98 -9.7,50.14 -19.87,50.18C-23.38,50.19 -26.101,50.31 -28.58,50.54C-31.391,50.79 -33.891,51.17 -36.87,51.66C-42.011,52.5 -48.761,54.11 -56.33,57.42L-57.53,58.19C-66.84,56.85 -74.57,58.62 -74.57,58.62C-82.001,55.46 -88.49,54.16 -93.05,53.58C-103.32,52.27 -111.39,53.62 -118.01,54.78C-124.62,55.93 -130.18,57.55 -134.46,59.02L-134.42,57.66C-134.71,54.84 -134.89,50.9 -134.42,46.26C-133.2,34.32 -128.42,25.95 -126.93,23.48C-120.08,12.15 -110.78,6.78 -105.18,3.63C-94.63,-2.29 -85.44,-3.63 -77.37,-4.82C-60.88,-7.24 -48.29,-4.93 -44.21,-4.08C-35.58,-2.3 -29.54,-1.05 -22.82,3.63C-12.23,11.01 -7.771,21.47 -5.351,27.15C-3.25,32.07 -0.34,40.55 0,51.78" style="fill:rgb(242,177,140);fill-rule:nonzero;"/>
                </g>
                <g transform="matrix(1,0,0,1,323.241,274.065)">
                    <path d="M0,-26.53L0,-26.46C-0.04,-24.23 -0.22,-21.47 -0.68,-18.36C-1.5,-12.86 -2.17,-7.96 -5.27,-2.97C-6.439,-1.07 -10,4.5 -16.729,7.37C-21.68,9.49 -25.77,9.03 -31.63,8.38C-36.77,7.81 -40.38,7.41 -44.01,4.6C-47.29,2.06 -48.819,-1.09 -50.66,-4.99C-52.16,-8.15 -54.08,-13.24 -55.229,-19.82L-54.729,-19.91C-53.77,-27.59 -47.77,-30.65 -47.77,-30.65C-40.64,-33.75 -33.37,-35.08 -26.84,-35.43C-15.779,-36.02 -6.8,-33.8 -4.09,-32.52C-0.54,-30.86 -0.06,-27.62 0,-26.53" style="fill:rgb(242,177,140);fill-rule:nonzero;"/>
                </g>
                <g transform="matrix(1,0,0,1,296.471,310.666)">
                    <path d="M0,11.65C0.59,12.36 -30.67,4.28 -66.68,17.42C-67.36,17.67 -68.13,17.52 -68.66,17L-68.91,16.76C-69.54,16.14 -69.67,15.16 -69.19,14.4C-66.9,10.76 -59.21,0.55 -42.33,-4.77C-42.04,-4.86 -41.72,-4.88 -41.42,-4.83L-38.73,-4.37L-38.33,-5.07C-35.771,-3.58 -31.851,-2.78 -27.95,-5.87C-27.771,-6.02 -2.46,0.15 -0.101,8.79C-0.03,9.07 -0.05,9.37 -0.12,9.65C-0.26,10.19 -0.42,11.15 0,11.65" style="fill:rgb(29,29,27);fill-rule:nonzero;"/>
                </g>
                <g transform="matrix(1,0,0,1,190.381,248.775)">
                    <path d="M0,-4.54C4.28,-6.01 9.84,-7.63 16.45,-8.78C23.07,-9.94 31.14,-11.29 41.41,-9.98C45.97,-9.4 52.46,-8.1 59.89,-4.94C59.89,-4.94 67.621,-6.71 76.93,-5.37L78.13,-6.14C85.7,-9.45 92.45,-11.06 97.59,-11.9C100.57,-12.39 103.07,-12.77 105.88,-13.02L106.02,-10.14C99.49,-9.79 92.22,-8.46 85.09,-5.36C85.09,-5.36 79.09,-2.3 78.13,5.38L77.63,5.47C77.34,3.84 77.11,2.11 76.93,0.3L74.31,-0.83C68.49,-2.5 64.17,-0.92 62.65,-0.21C62.59,1.98 62.21,5.04 61.411,8.48L61.24,8.44C61.14,2.86 57.97,-0.86 57.97,-0.86C45.01,-12.14 11.89,-5.42 7.81,-3.41C3.73,-1.4 3.42,3.7 3.42,3.7C3.05,3.08 2.53,2.61 1.93,2.25C0.85,1.59 -0.48,1.3 -1.55,1.16L-1.55,-3.98C-1.05,-4.16 -0.54,-4.35 0,-4.54" style="fill:rgb(60,59,58);fill-rule:nonzero;"/>
                </g>
                <g transform="matrix(1,0,0,1,276.901,354.935)">
                    <path d="M0,-17.5C0,-17.5 -9.84,-6.01 -10.08,0C-10.08,0 -12.88,-6.22 -24.56,-17.5C-24.56,-17.5 -12.96,-14.62 0,-17.5" style="fill:rgb(29,29,27);fill-rule:nonzero;"/>
                </g>
                <g transform="matrix(1,0,0,1,251.621,267.235)">
                    <path d="M0,-10.02L0.171,-9.98C-0.5,-7.1 -1.459,-3.95 -2.79,-0.84C-4.77,3.79 -7.209,9.53 -13.109,13.8C-20.81,19.37 -31.81,20.58 -40.95,16.44C-42.85,15.58 -50.54,12.09 -53.669,4.68C-53.85,4.26 -57.899,-5.34 -57.27,-11.64C-57.22,-12.13 -57.05,-13.5 -57.819,-14.76C-57.819,-14.76 -57.51,-19.86 -53.43,-21.87C-49.35,-23.88 -16.229,-30.6 -3.27,-19.32C-3.27,-19.32 -0.1,-15.6 0,-10.02" style="fill:rgb(242,177,140);fill-rule:nonzero;"/>
                </g>
                <g transform="matrix(1,0,0,1,195.951,311.495)">
                    <path d="M0,12.37L-0.85,12.37C-1.92,12.39 -3.45,12.2 -4.69,11.17C-6.15,9.95 -6.54,8.1 -6.85,6.61C-7.26,4.65 -6.83,4.42 -7.33,3.25C-7.39,3.1 -7.46,2.96 -7.54,2.84L-3.64,-0.02C-2.69,3.96 -1.53,8.06 0,12.37" style="fill:rgb(135,135,135);fill-rule:nonzero;"/>
                </g>
                <g transform="matrix(1,0,0,1,192.311,269.845)">
                    <path d="M0,41.63L-3.9,44.49C-4.71,43.01 -5.97,42.79 -6.81,41.54C-7.4,40.66 -7.53,39.66 -7.43,38.64C-7.31,37.3 -6.82,35.94 -6.57,34.82C-5.4,29.74 -8.73,28.48 -11.37,18.26C-12.91,12.29 -14.37,6.3 -11.37,1.22C-10.18,-0.79 -8.63,-2.09 -7.53,-2.86L-6.06,-2.05C-5.66,4.15 -5.33,9.03 -4.85,13.78C-4.39,18.34 -3.77,22.77 -2.78,28.1C-1.95,32.58 -1.11,37.03 0,41.63M-7.98,17.74C-8.51,12.48 -8.57,3.79 -8.58,2.69C-8.59,1.67 -9.89,5.49 -10.1,6.74C-10.47,8.93 -9.03,14.09 -7.98,17.74M-7.97,17.77C-7.75,20.01 -7.43,21.61 -7,21.74C-6.79,21.8 -7.3,20.1 -7.97,17.77" style="fill:rgb(242,177,140);fill-rule:nonzero;"/>
                </g>
                <g transform="matrix(1,0,0,1,184.341,291.645)">
                    <path d="M0,-4.03C0.67,-1.7 1.18,0 0.97,-0.06C0.54,-0.19 0.22,-1.79 0,-4.03" style="fill:rgb(29,29,27);fill-rule:nonzero;"/>
                </g>
                <g transform="matrix(1,0,0,1,183.731,286.565)">
                    <path d="M0,-14.03C0.01,-12.93 0.07,-4.24 0.6,1.02C-0.45,-2.63 -1.89,-7.79 -1.52,-9.98C-1.31,-11.23 -0.01,-15.05 0,-14.03" style="fill:rgb(29,29,27);fill-rule:nonzero;"/>
                </g>
            </g>
            <g transform="matrix(1,0,0,1,211.711,129.305)">
                <path d="M0,225.02C-6.09,216.85 -9.6,209.21 -12.1,203.68C-13.53,200.52 -14.73,197.49 -15.76,194.56C-17.29,190.25 -18.45,186.15 -19.4,182.17C-20.51,177.57 -21.35,173.12 -22.18,168.64C-23.17,163.31 -23.79,158.88 -24.25,154.32C-24.73,149.57 -25.06,144.69 -25.46,138.49C-25.63,135.98 -25.81,133.26 -26.02,130.24C-27.82,104.5 -32.72,97.02 -30.34,81.28C-29.07,72.91 -29.12,67.21 -25.06,62.08C-22.48,58.82 -19.6,57.17 -19.06,53.2C-18.36,48.02 -22.31,43.8 -20.98,42.64C-19.68,41.5 -15.58,45.31 -14.02,44.08C-12.18,42.63 -16.32,36.1 -14.26,34.24C-12.62,32.75 -8.99,36 -6.82,34.48C-3.84,32.4 -7.02,23.69 -5.62,23.2C-4.43,22.78 -1.67,28.87 -0.58,28.48C0.65,28.04 -1.46,19.73 -1.08,17.66C-1.03,17.41 -0.95,17.25 -0.82,17.2C-0.46,17.08 0.08,17.89 0.74,19.05C2.2,21.61 4.19,25.86 5.9,25.6C8.82,25.15 8.56,11.86 10.94,11.68C12.61,11.55 13.76,18.02 15.74,17.92C18.05,17.81 19.14,8.91 20.54,9.04C21.59,9.14 21.3,14.13 22.94,14.56C25.18,15.15 28.45,6.58 30.62,7.12C32.5,7.59 31.3,14.36 33.26,15.04C36.44,16.15 44.69,0 45.98,0.64C46.92,1.11 42.85,9.94 44.78,11.2C45.87,11.91 48.3,9.85 49.97,8.9C50.66,8.52 51.21,8.31 51.501,8.56C52.55,9.46 48.56,15.11 49.34,15.76C50.57,16.78 61.85,3.95 63.98,5.44C65.66,6.61 59.751,15.31 62.3,17.92C65.56,21.26 79.7,11.62 81.501,14.08C82.56,15.52 78.4,19.8 79.34,20.8C80.67,22.22 90.09,14.7 91.581,16.24C91.73,16.39 91.78,16.61 91.751,16.88C91.65,18.64 88.61,22.57 89.66,23.68C91.03,25.12 97.791,20.12 99.02,21.52C99.81,22.42 97.17,24.67 97.82,26.56C99.3,30.88 116.19,28.36 116.541,30.4C116.76,31.67 110.331,33.29 110.541,35.2C110.73,36.92 116.081,36.94 116.3,38.56C116.65,41.11 103.98,44.79 104.3,46C104.501,46.76 109.541,45.39 110.541,47.2C111.48,48.9 107.86,51.63 108.86,53.68C109.74,55.48 113.11,54.55 113.9,56.32C114.65,58 111.91,59.49 111.98,62.56C112.03,64.83 113.57,65.71 114.86,68.08C116.62,71.32 116.06,73.93 116.06,78.4C116.06,82.24 116.37,84.3 116.791,86.94C117.37,90.48 118.16,95.04 118.7,106.24C118.95,111.33 119.12,115.01 118.95,120.1C118.95,120.2 118.94,120.3 118.94,120.4C118.6,129.81 117.52,131.44 116.95,139.7C116.69,143.57 116.751,146.13 116.91,148.51" style="fill:none;fill-rule:nonzero;stroke:rgb(29,29,27);stroke-width:0.72px;"/>
            </g>
            <g transform="matrix(1,0,0,1,328.631,386.875)">
                <path d="M0,-108.95C0.26,-105.12 0.77,-101.75 0.58,-94.21C0.58,-94.12 0.58,-94.03 0.569,-93.94C0.38,-86.35 0.229,-80.93 -0.86,-74.29C-1.58,-69.89 -4.17,-56.13 -13.101,-40.69C-13.391,-40.19 -13.681,-39.7 -13.971,-39.22C-21.46,-26.75 -29.601,-19.18 -31.82,-17.17C-38.16,-11.44 -45.551,-4.9 -57.021,-2.05C-59.99,-1.31 -65.46,0 -72.38,-1.09C-75.181,-1.53 -79.49,-2.56 -87.74,-7.33C-93.001,-10.37 -100.64,-14.86 -108.86,-23.17C-111.97,-26.31 -114.63,-29.46 -116.92,-32.54" style="fill:none;fill-rule:nonzero;stroke:rgb(29,29,27);stroke-width:0.72px;"/>
            </g>
            <g transform="matrix(1,0,0,1,186.961,322.685)">
                <path d="M0,-54.5L-0.71,-54.89L-2.18,-55.7C-3.28,-54.93 -4.83,-53.63 -6.02,-51.62C-9.02,-46.54 -7.56,-40.55 -6.02,-34.58C-3.38,-24.36 -0.05,-23.1 -1.22,-18.02C-1.47,-16.9 -1.96,-15.54 -2.08,-14.2C-2.18,-13.18 -2.05,-12.18 -1.46,-11.3C-0.62,-10.05 0.64,-9.83 1.45,-8.35C1.53,-8.23 1.6,-8.09 1.66,-7.94C2.16,-6.77 1.73,-6.54 2.14,-4.58C2.45,-3.09 2.84,-1.24 4.3,-0.02C5.54,1.01 7.07,1.2 8.14,1.18L9.75,1.18" style="fill:none;fill-rule:nonzero;stroke:rgb(29,29,27);stroke-width:0.72px;"/>
            </g>
            <g transform="matrix(1,0,0,1,187.851,311.475)">
                <path d="M0,3.27L0.56,2.86L4.46,0" style="fill:none;fill-rule:nonzero;stroke:rgb(29,29,27);stroke-width:0.72px;"/>
            </g>
            <g transform="matrix(1,0,0,1,330.891,293.635)">
                <path d="M0,-44.22L2.21,-44.3C2.21,-44.3 14.229,-27.73 7.84,-7.54C7.84,-7.54 5.1,0.08 -1.3,-0.69" style="fill:none;fill-rule:nonzero;stroke:rgb(29,29,27);stroke-width:0.72px;"/>
            </g>
            <g transform="matrix(1,0,0,1,268.511,281.705)">
                <path d="M0,-38.11C-0.4,-38.18 -0.8,-38.24 -1.2,-38.3C-10.51,-39.64 -18.24,-37.87 -18.24,-37.87C-25.67,-41.03 -32.16,-42.33 -36.72,-42.91C-46.99,-44.22 -55.06,-42.87 -61.68,-41.71C-68.29,-40.56 -73.85,-38.94 -78.13,-37.47C-78.67,-37.28 -79.18,-37.09 -79.68,-36.91L-79.68,-31.77C-78.61,-31.63 -77.28,-31.34 -76.2,-30.68C-75.6,-30.32 -75.08,-29.85 -74.71,-29.23C-73.94,-27.97 -74.11,-26.6 -74.16,-26.11C-74.79,-19.81 -70.74,-10.21 -70.56,-9.79C-67.43,-2.38 -59.74,1.11 -57.84,1.97C-48.7,6.11 -37.7,4.9 -30,-0.67C-24.1,-4.94 -21.66,-10.68 -19.68,-15.31C-18.35,-18.42 -17.391,-21.57 -16.72,-24.45C-15.92,-27.89 -15.54,-30.95 -15.48,-33.14C-15.47,-33.32 -15.47,-33.5 -15.47,-33.67" style="fill:none;fill-rule:nonzero;stroke:rgb(29,29,27);stroke-width:0.72px;"/>
            </g>
            <g transform="matrix(1,0,0,1,267.311,246.276)">
                <path d="M0,2.6C-0.9,2.21 -1.78,1.9 -2.62,1.67C-8.44,0 -12.76,1.58 -14.28,2.29C-14.67,2.47 -14.88,2.6 -14.88,2.6" style="fill:none;fill-rule:nonzero;stroke:rgb(29,29,27);stroke-width:0.72px;"/>
            </g>
            <g transform="matrix(1,0,0,1,323.331,235.355)">
                <path d="M0,11.6L3.101,11.6C3.15,9.04 3.33,6.61 3.48,4.1C2.53,3.49 2.25,3.19 1.511,2.86C1.141,2.7 0.66,2.52 -0.079,2.29C-4.75,0.84 -8.189,0 -18.359,0.04C-21.869,0.05 -24.59,0.17 -27.069,0.4C-29.88,0.65 -32.38,1.03 -35.359,1.52C-40.5,2.36 -47.25,3.97 -54.819,7.28L-56.02,8.05" style="fill:none;fill-rule:nonzero;stroke:rgb(29,29,27);stroke-width:0.72px;"/>
            </g>
            <g transform="matrix(0.0189621,-0.99982,-0.99982,-0.0189621,323.536,247.256)">
                <path d="M-0.285,0.29C-0.084,0.283 0.106,0.286 0.296,0.29" style="fill:none;fill-rule:nonzero;stroke:rgb(29,29,27);stroke-width:0.72px;"/>
            </g>
            <g transform="matrix(1,0,0,1,264.621,283.245)">
                <path d="M0,-35.33L0.07,-35.3L2.69,-34.17C2.87,-32.36 3.101,-30.63 3.391,-29C4.54,-22.42 6.46,-17.33 7.96,-14.17C9.801,-10.27 11.33,-7.12 14.61,-4.58C18.24,-1.77 21.851,-1.37 26.99,-0.8C32.851,-0.15 36.94,0.31 41.891,-1.81C48.62,-4.68 52.181,-10.25 53.351,-12.15C56.45,-17.14 57.12,-22.04 57.94,-27.54C58.4,-30.65 58.58,-33.41 58.62,-35.64" style="fill:none;fill-rule:nonzero;stroke:rgb(29,29,27);stroke-width:0.72px;"/>
            </g>
            <g transform="matrix(1,0,0,1,252.341,354.935)">
                <path d="M0,-17.5C0,-17.5 11.6,-14.62 24.56,-17.5C24.56,-17.5 14.72,-6.01 14.48,0C14.48,0 11.68,-6.22 0,-17.5Z" style="fill:none;fill-rule:nonzero;stroke:rgb(29,29,27);stroke-width:0.72px;"/>
            </g>
            <g transform="matrix(0.998586,-0.0531643,-0.0531643,-0.998586,240.825,329.891)">
                <path d="M0.103,1.261C0.103,1.261 23.796,-5.157 47.692,1.261" style="fill:none;fill-rule:nonzero;stroke:rgb(29,29,27);stroke-width:0.72px;"/>
            </g>
            <g transform="matrix(1,0,0,1,193.801,241.375)">
                <path d="M0,11.1C0,11.1 0.31,6 4.39,3.99C8.47,1.98 41.59,-4.74 54.55,6.54C54.55,6.54 57.72,10.26 57.819,15.84" style="fill:none;fill-rule:nonzero;stroke:rgb(29,29,27);stroke-width:0.72px;"/>
            </g>
            <g transform="matrix(1,0,0,1,242.351,328.335)">
                <path d="M0,-30.74C0,-30.74 -0.65,-26.9 4.96,-25.46C7.97,-24.69 9.56,-25.02 10.39,-25.5C11.07,-25.89 11.92,-25.8 12.52,-25.29C13.05,-24.84 13.75,-24.26 14.64,-23.54C14.98,-23.27 15.37,-22.99 15.79,-22.74C18.35,-21.25 22.27,-20.45 26.17,-23.54C26.35,-23.69 51.66,-17.52 54.02,-8.88C54.09,-8.6 54.07,-8.3 54,-8.02C53.86,-7.48 53.7,-6.52 54.12,-6.02C54.71,-5.31 23.45,-13.39 -12.56,-0.25C-13.24,0 -14.01,-0.15 -14.54,-0.67L-14.79,-0.91C-15.42,-1.53 -15.55,-2.51 -15.07,-3.27C-12.78,-6.91 -5.09,-17.12 11.79,-22.44C12.08,-22.53 12.4,-22.55 12.7,-22.5L15.39,-22.04" style="fill:none;fill-rule:nonzero;stroke:rgb(29,29,27);stroke-width:0.72px;"/>
            </g>
            <g transform="matrix(0.744658,-0.667447,-0.667447,-0.744658,270.373,305.747)">
                <path d="M-0.744,1.945L5.084,1.945" style="fill:none;fill-rule:nonzero;stroke:rgb(29,29,27);stroke-width:0.72px;"/>
            </g>
            <g transform="matrix(1,0,0,1,279.071,300.956)">
                <path d="M0,-7.35C0,-7.35 2.69,-0.72 -6.21,-0.05C-6.52,-0.02 -6.85,-0.01 -7.2,0" style="fill:none;fill-rule:nonzero;stroke:rgb(29,29,27);stroke-width:0.72px;stroke-miterlimit:7;"/>
            </g>
            <g transform="matrix(1,0,0,1,192.311,364.385)">
                <path d="M0,-113.36L-4.36,-80.86L1.34,-69.29C1.81,-65.87 2.22,-64.52 3.99,-59.02C5.96,-52.89 7.34,-48.63 10.47,-44.86C16.2,-37.98 24.93,-36.24 29.67,-35.74C29.67,-35.74 22.71,10.099 69.51,11.54C116.31,12.98 111.75,-34.54 111.75,-34.54C113.06,-34.52 114.93,-34.62 117.03,-35.26C123.78,-37.34 127.21,-43.24 129.27,-46.78C134.12,-55.14 134.31,-63.55 134.07,-67.9L136.32,-86.46C136.31,-86.49 136.31,-86.53 136.31,-86.57L132.12,-117.43L130.94,-116.47C130.94,-116.47 130.95,-116.58 130.93,-116.78L130.93,-116.85C130.87,-117.94 130.39,-121.18 126.84,-122.84C124.13,-124.12 115.15,-126.34 104.09,-125.75C97.56,-125.4 90.29,-124.07 83.16,-120.97C83.16,-120.97 77.16,-117.91 76.2,-110.23" style="fill:none;fill-rule:nonzero;stroke:rgb(29,29,27);stroke-width:0.72px;"/>
            </g>
            <g transform="matrix(1,0,0,1,324.841,183.916)">
                <path d="M0,54.9L0,53.08C-0.34,41.85 -3.25,33.37 -5.351,28.45C-7.771,22.77 -12.23,12.31 -22.82,4.93C-29.54,0.25 -35.58,-1 -44.21,-2.78C-48.29,-3.63 -60.88,-5.94 -77.37,-3.52C-85.44,-2.33 -94.63,-0.99 -105.18,4.93C-110.78,8.08 -120.08,13.45 -126.93,24.78C-128.42,27.25 -133.2,35.62 -134.42,47.56C-134.89,52.2 -134.71,56.14 -134.42,58.96L-134.46,60.32L-134.47,60.84" style="fill:none;fill-rule:nonzero;stroke:rgb(29,29,27);stroke-width:0.72px;"/>
            </g>
            <g transform="matrix(1,0,0,1,184.341,291.645)">
                <path d="M0,-4.03C0.22,-1.79 0.54,-0.19 0.97,-0.06C1.18,0 0.67,-1.7 0,-4.03Z" style="fill:none;fill-rule:nonzero;stroke:rgb(29,29,27);stroke-width:0.72px;"/>
            </g>
            <g transform="matrix(-0.316228,-0.948683,-0.948683,0.316228,184.348,287.591)">
                <path d="M-0.021,0.015C-0.011,0.012 -0.002,0.009 0.011,0.015" style="fill:none;fill-rule:nonzero;stroke:rgb(29,29,27);stroke-width:0.72px;"/>
            </g>
            <g transform="matrix(1,0,0,1,184.331,271.516)">
                <path d="M0,16.07C-1.05,12.42 -2.49,7.26 -2.12,5.07C-1.91,3.82 -0.61,0 -0.6,1.02C-0.59,2.12 -0.53,10.81 0,16.07Z" style="fill:none;fill-rule:nonzero;stroke:rgb(29,29,27);stroke-width:0.72px;"/>
            </g>
            <g transform="matrix(1,0,0,1,333.491,257.536)">
                <path d="M0,27.03C-2.899,26.62 0.95,8.79 -0.479,1.35C-0.779,-0.22 3.66,8.06 3.641,14.73C3.62,20.83 1.551,27.25 0,27.03Z" style="fill:none;fill-rule:nonzero;stroke:rgb(29,29,27);stroke-width:0.72px;"/>
            </g>
            <g transform="matrix(1,0,0,1,211.711,401.446)">
                <path d="M0,-47.121L0,-47.111L1.82,-41.101C2.7,-39.281 3.88,-36.491 4.7,-32.941C4.84,-32.321 4.96,-31.731 5.05,-31.171C5.22,-30.071 5.31,-29.071 5.36,-28.151C5.47,-26.171 5.4,-24.511 5.66,-22.861C7.05,-14.021 8.11,-7.301 12.86,-2.221C16.68,1.859 21.23,3.109 26.3,4.499C29.9,5.489 35.94,6.67 50.78,4.979C58.91,4.049 67.2,3.109 78.14,-0.301C89.01,-3.691 98.791,-6.741 108.38,-15.181C118.93,-24.471 119.77,-26.83 119.42,-28.141C118.8,-30.481 116.16,-30.101 111.14,-34.981C106.95,-39.041 105.21,-42.771 104.78,-43.741C103.6,-46.381 103.1,-48.741 102.86,-50.341L102.95,-53.791" style="fill:none;fill-rule:nonzero;stroke:rgb(29,29,27);stroke-width:0.72px;"/>
            </g>
            <g transform="matrix(1,0,0,1,166.881,503.505)">
                <path d="M0,-102.299L8.45,-89.839L62.45,-10.299L77.22,11.471L152.31,-39.499L210.161,-78.759L223.291,-87.679L205.59,-113.77" style="fill:none;fill-rule:nonzero;stroke:rgb(29,29,27);stroke-width:0.72px;"/>
            </g>
            <g transform="matrix(-0.873911,0.486086,0.486086,0.873911,176.172,410.953)">
                <path d="M-50.251,-13.035L3.381,-13.035" style="fill:none;fill-rule:nonzero;stroke:rgb(29,29,27);stroke-width:0.72px;"/>
            </g>
            <g transform="matrix(-0.874654,0.484748,0.484748,0.874654,214.405,375.825)">
                <path d="M-3.558,-0.92C-2.264,-0.917 -0.998,-0.921 0.238,-0.92" style="fill:none;fill-rule:nonzero;stroke:rgb(29,29,27);stroke-width:0.72px;"/>
            </g>
            <g transform="matrix(0.929296,0.369336,0.369336,-0.929296,335.627,366.252)">
                <path d="M-1.573,-8.215C-1.573,-8.215 24.827,-9.334 42.913,-8.215" style="fill:none;fill-rule:nonzero;stroke:rgb(29,29,27);stroke-width:0.72px;"/>
            </g>
        </g>
        <g id="Livello1" transform="matrix(0.24,0,0,0.24,0,0)">
            <path d="M826.93,1194.5C826.93,1194.5 870.341,1240.46 971.632,1234.51C971.632,1234.51 913.035,1253.54 865.376,1229.75C850.903,1222.53 837.438,1211.35 826.93,1194.5Z" style="fill:rgb(208,154,122);"/>
            <path d="M1087.07,1060.44L1108.35,1236C1108.35,1236 1137.08,1224.29 1141.34,1214.72C1145.59,1205.14 1084.94,1064.7 1087.07,1060.44Z" style="fill:rgb(208,154,122);"/>
            <path d="M1239.22,793.913C1239.22,793.913 1322.21,844.984 1340.3,963.086C1340.3,963.086 1299.87,942.87 1238.16,958.83C1238.16,958.83 1276.46,924.783 1239.22,793.913Z" style="fill:rgb(208,154,122);"/>
            <g transform="matrix(1,0,0,1,14.2034,11.6671)">
                <path d="M1302.38,1477.26C1302.38,1477.26 1324.85,1547.4 1354.82,1554.89C1354.82,1554.89 1348.69,1562.38 1354.13,1577.36C1354.13,1577.36 1309.19,1548.76 1296.25,1490.2L1302.38,1477.26Z" style="fill:rgb(208,154,122);"/>
            </g>
        </g>
    </g>
</svg>
