<?xml version="1.0" encoding="UTF-8" standalone="no"?>
<!DOCTYPE svg PUBLIC "-//W3C//DTD SVG 1.1//EN" "http://www.w3.org/Graphics/SVG/1.1/DTD/svg11.dtd">
<svg width="100%" height="100%" viewBox="0 0 512 512" version="1.1" xmlns="http://www.w3.org/2000/svg" xmlns:xlink="http://www.w3.org/1999/xlink" xml:space="preserve" xmlns:serif="http://www.serif.com/" style="fill-rule:evenodd;clip-rule:evenodd;stroke-linejoin:round;stroke-miterlimit:2;">
    <g transform="matrix(1,0,0,1,-177.174,-77.0674)">
        <circle cx="433.174" cy="333.067" r="142.216" style="fill:rgb(72,70,89);"/>
    </g>
    <g transform="matrix(0.607587,0,0,0.607587,81.1591,0.239321)">
        <g transform="matrix(1,0,0,1,16.5272,-266.388)">
            <g id="Livello-1" serif:id="Livello 1">
                <g id="path400" transform="matrix(1,0,0,1,-10.2717,328.697)">
                    <path d="M311.786,496.041C309.594,495.666 307.548,494.949 305.704,493.91C299.228,490.263 188.366,426.163 187.596,425.62C186.268,424.684 184.404,422.823 183.446,421.475C181.994,419.433 180.932,417.01 180.383,414.483C180.079,413.087 180.04,409.032 180.316,407.619C180.594,406.195 181.316,404.067 181.936,402.845C182.459,401.813 279.82,233.098 281.646,230.06C284.081,226.007 287.451,223.284 291.742,221.903C293.952,221.191 295.476,220.988 297.967,221.074C300.738,221.169 302.624,221.599 304.925,222.66C306.031,223.171 422.429,290.342 423.985,291.368C426.761,293.198 429.262,296.275 430.562,299.459C432.531,304.279 432.362,309.71 430.101,314.294C429.799,314.906 417.879,335.624 403.611,360.336C389.344,385.047 367.018,423.718 354,446.271C340.981,468.824 330,487.776 329.598,488.388C328.658,489.816 326.325,492.148 324.854,493.128C322.624,494.615 320.077,495.622 317.48,496.043C316.054,496.275 313.143,496.273 311.786,496.041L311.786,496.041ZM315.643,479.703C315.824,479.584 316.114,479.268 316.288,479C316.623,478.481 414.447,309.047 415.218,307.649C415.613,306.933 415.664,306.738 415.609,306.165C415.561,305.661 415.457,305.419 415.168,305.136C414.96,304.933 408.934,301.387 401.776,297.256C394.618,293.125 368.337,277.95 343.374,263.534C299.604,238.256 297.963,237.322 297.333,237.321C296.87,237.319 296.564,237.401 296.286,237.601C295.999,237.807 282.544,261 246.13,324.059C198.083,407.262 196.366,410.258 196.361,410.895C196.358,411.31 196.441,411.684 196.584,411.904C196.71,412.096 197.505,412.658 198.35,413.154C200.042,414.147 313.182,479.456 313.813,479.804C314.285,480.065 315.165,480.016 315.643,479.703L315.643,479.703ZM166.32,469.352C164.813,469.117 163.762,468.836 162.356,468.294C156.533,466.049 152.266,460.837 151.072,454.511C150.848,453.323 150.838,448.828 150.838,352.291C150.838,254.214 150.843,251.277 151.082,250.007C151.795,246.194 153.496,242.928 156.148,240.275C158.717,237.707 161.723,236.099 165.539,235.253L166.795,234.975L215.218,234.935L280.069,234.896L278.425,237.742C277.521,239.308 275.397,242.988 273.705,245.919L270.629,251.249L211.283,251.25C169.749,251.251 168.353,251.259 167.998,251.493C167.796,251.626 167.531,251.876 167.409,252.048C167.202,252.341 167.182,257.363 167.092,330.71C167.04,373.801 166.995,409.882 166.993,410.89C166.99,411.897 167.033,421.582 167.088,432.412C167.182,450.906 167.202,452.124 167.419,452.455C167.546,452.649 167.808,452.911 168.001,453.038C168.333,453.255 169.516,453.27 188.719,453.303L238.535,453.337L251.922,461.068C259.285,465.321 265.603,468.969 265.963,469.175L266.617,469.55L202.307,469.539C173.801,469.531 167.244,469.495 166.321,469.352L166.32,469.352Z" style="fill:rgb(242,201,187);fill-rule:nonzero;"/>
                </g>
                <g transform="matrix(1.05359,0.61487,-0.512813,0.878712,516.574,-26.2301)">
                    <rect x="78.451" y="607.571" width="123.261" height="211.696" style="fill:rgb(242,201,187);"/>
                </g>
                <g transform="matrix(1.35321,-0.00221599,0.00165637,1.01148,46.8262,-38.5914)">
                    <rect x="78.451" y="607.571" width="123.261" height="211.696" style="fill:rgb(242,201,187);"/>
                </g>
            </g>
        </g>
        <g id="path4001" serif:id="path400" transform="matrix(0.945636,0,0,0.945636,22.0961,81.8059)">
            <path d="M311.786,496.041C309.594,495.666 307.548,494.949 305.704,493.91C299.228,490.263 188.366,426.163 187.596,425.62C186.268,424.684 184.404,422.823 183.446,421.475C181.994,419.433 180.932,417.01 180.383,414.483C180.079,413.087 180.04,409.032 180.316,407.619C180.594,406.195 181.316,404.067 181.936,402.845C182.459,401.813 279.82,233.098 281.646,230.06C284.081,226.007 287.451,223.284 291.742,221.903C293.952,221.191 295.476,220.988 297.967,221.074C300.738,221.169 302.624,221.599 304.925,222.66C306.031,223.171 422.429,290.342 423.985,291.368C426.761,293.198 429.262,296.275 430.562,299.459C432.531,304.279 432.362,309.71 430.101,314.294C429.799,314.906 417.879,335.624 403.611,360.336C389.344,385.047 367.018,423.718 354,446.271C340.981,468.824 330,487.776 329.598,488.388C328.658,489.816 326.325,492.148 324.854,493.128C322.624,494.615 320.077,495.622 317.48,496.043C316.054,496.275 313.143,496.273 311.786,496.041L311.786,496.041ZM315.643,479.703C315.824,479.584 316.114,479.268 316.288,479C316.623,478.481 414.447,309.047 415.218,307.649C415.613,306.933 415.664,306.738 415.609,306.165C415.561,305.661 415.457,305.419 415.168,305.136C414.96,304.933 408.934,301.387 401.776,297.256C394.618,293.125 368.337,277.95 343.374,263.534C299.604,238.256 297.963,237.322 297.333,237.321C296.87,237.319 296.564,237.401 296.286,237.601C295.999,237.807 282.544,261 246.13,324.059C198.083,407.262 196.366,410.258 196.361,410.895C196.358,411.31 196.441,411.684 196.584,411.904C196.71,412.096 197.505,412.658 198.35,413.154C200.042,414.147 313.182,479.456 313.813,479.804C314.285,480.065 315.165,480.016 315.643,479.703L315.643,479.703ZM166.32,469.352C164.813,469.117 163.762,468.836 162.356,468.294C156.533,466.049 152.266,460.837 151.072,454.511C150.848,453.323 150.838,448.828 150.838,352.291C150.838,254.214 150.843,251.277 151.082,250.007C151.795,246.194 153.496,242.928 156.148,240.275C158.717,237.707 161.723,236.099 165.539,235.253L166.795,234.975L263.641,234.896L261.997,237.742C261.092,239.308 258.968,242.988 257.276,245.919L254.2,251.249L211.283,251.25C169.749,251.251 168.353,251.259 167.998,251.493C167.796,251.626 167.531,251.876 167.409,252.048C167.202,252.341 167.182,257.363 167.092,330.71C167.04,373.801 166.995,409.882 166.993,410.89C166.99,411.897 167.033,421.582 167.088,432.412C167.182,450.906 167.202,452.124 167.419,452.455C167.546,452.649 167.808,452.911 168.001,453.038C168.333,453.255 169.516,453.27 188.719,453.303L209.084,453.337L222.471,461.068C229.833,465.321 236.152,468.969 236.511,469.175L237.165,469.55L202.307,469.539C173.801,469.531 167.244,469.495 166.321,469.352L166.32,469.352Z" style="fill-rule:nonzero;"/>
        </g>
    </g>
</svg>
